<svg xmlns="http://www.w3.org/2000/svg" viewBox="0 0 512 512"><g data-name="Pound Cash x2"><path d="M378.596 164.506h-200.39c-12.838 0-23.244 9.093-23.244 20.317v2.728h-10.588c-18.866 0-34.217 14.038-34.217 31.29v97.363c0 17.252 15.351 31.29 34.217 31.29h200.394c18.865 0 34.215-14.038 34.215-31.29v-13.72c12.66-.183 22.86-9.19 22.86-20.299v-97.362c0-11.221-10.41-20.317-23.247-20.317zm-21.558 151.698c0 5.066-5.62 9.345-12.27 9.345H144.374c-6.654 0-12.272-4.28-12.272-9.344v-97.363c0-5.066 5.618-9.346 12.272-9.346h200.394c6.65 0 12.27 4.28 12.27 9.346z"/><path d="M250.792 240.677a12.35 12.35 0 0 1 7.49 3.49 4.396 4.396 0 0 1 1.45 2.648l21.944.314a25.665 25.665 0 0 0-7.765-18.365c-6.094-6.184-14.96-10.029-23.123-10.029a28.743 28.743 0 0 0-24.951 13.83 27.137 27.137 0 0 0-.586 26.93c.14.26.308.548.454.82h-14.381v21.944h21.425c0 .073.008.129.008.202 0 7.647-17.637 8.266-17.772 8.266v21.945h59.526v-21.945h-21.024a27.537 27.537 0 0 0 1.215-8.266c0-.073-.008-.129-.008-.202h13.215v-21.945h-17.53a82.202 82.202 0 0 0-4.47-8.815c-.457-.804-.888-1.565-1.28-2.296a5.12 5.12 0 0 1 .015-5.333 7.012 7.012 0 0 1 6.148-3.193z"/></g></svg>